# xmcd
#
# Track frame offsets:
#	150
#	13728
#	25211
#	40032
#	50567
#	67630
#	82595
#	94908
#	109345
#	124645
#
# Disc length: 1943
#
# Revision: 4
# Processed by: cddbd v1.5.1PL0 Copyright (c) Steve Scherf et al.
# Submitted via: OrangeCD 5.0
# Normalized: r3:DSETVAR1
#
DISCID=7007950a
DTITLE=Various Artist - Holiday Rhythms: Blue Shades of Christmas - Vol. 2
DYEAR=1999
DGENRE=Christmas
TTITLE0=Wilson Pickett - Jingle Bells
TTITLE1=Otis Redding - Merry Christmas Baby
TTITLE2=Ben E. King - The Christmas Song
TTITLE3=Commodores - Sleigh Ride
TTITLE4=Roomful Of Blues - Let It Snow! Let It Snow! Let It Snow!
TTITLE5=Mary Wells - Silent Night
TTITLE6=Johnny Winter - Please Come Home For Christmas
TTITLE7=Stylistics - This Christmas
TTITLE8=Louis Jordan - Santa Claus, Santa Claus
TTITLE9=Mickey Gilley - Blue Christmas
EXTD=YEAR: 1999 ID3G: 0
EXTT0=
EXTT1=
EXTT2=
EXTT3=
EXTT4=
EXTT5=
EXTT6=
EXTT7=
EXTT8=
EXTT9=
PLAYORDER=
